<mxfile host="app.diagrams.net" modified="2024-04-28T09:25:44.002Z" agent="Mozilla/5.0 (Windows NT 10.0; Win64; x64) AppleWebKit/537.36 (KHTML, like Gecko) Chrome/124.0.0.0 Safari/537.36" version="22.1.17" etag="Ct3V04TiV12t2pNla1iM" type="github">
  <diagram name="Page-1" id="Amcg5-EHi4oEupa5YacP">
    <mxGraphModel>
      <root>
        <mxCell id="0" />
        <mxCell id="1" parent="0" />
      </root>
    </mxGraphModel>
  </diagram>
</mxfile>
